HIERARCHY
ROOT Hips
{
	OFFSET 0.00000 0.00000 0.00000
	CHANNELS 6 Xposition Yposition Zposition Zrotation Yrotation Xrotation 
	JOINT LHipJoint
	{
		OFFSET 0 0 0
		CHANNELS 3 Zrotation Yrotation Xrotation
		JOINT LeftUpLeg
		{
			OFFSET 1.41496 -1.84582 0.78394
			CHANNELS 3 Zrotation Yrotation Xrotation
			JOINT LeftLeg
			{
				OFFSET 2.58040 -7.08960 0.00000
				CHANNELS 3 Zrotation Yrotation Xrotation
				JOINT LeftFoot
				{
					OFFSET 2.64719 -7.27309 0.00000
					CHANNELS 3 Zrotation Yrotation Xrotation
					JOINT LeftToeBase
					{
						OFFSET 0.20718 -0.56921 2.20259
						CHANNELS 3 Zrotation Yrotation Xrotation
						End Site
						{
							OFFSET 0.00000 -0.00000 1.14243
						}
					}
				}
			}
		}
	}
	JOINT RHipJoint
	{
		OFFSET 0 0 0
		CHANNELS 3 Zrotation Yrotation Xrotation
		JOINT RightUpLeg
		{
			OFFSET -1.40551 -1.84582 0.78394
			CHANNELS 3 Zrotation Yrotation Xrotation
			JOINT RightLeg
			{
				OFFSET -2.56572 -7.04926 0.00000
				CHANNELS 3 Zrotation Yrotation Xrotation
				JOINT RightFoot
				{
					OFFSET -2.57974 -7.08778 0.00000
					CHANNELS 3 Zrotation Yrotation Xrotation
					JOINT RightToeBase
					{
						OFFSET -0.26704 -0.73369 2.20815
						CHANNELS 3 Zrotation Yrotation Xrotation
						End Site
						{
							OFFSET -0.00000 -0.00000 1.16246
						}
					}
				}
			}
		}
	}
	JOINT LowerBack
	{
		OFFSET 0 0 0
		CHANNELS 3 Zrotation Yrotation Xrotation
		JOINT Spine
		{
			OFFSET -0.04690 2.05196 -0.07017
			CHANNELS 3 Zrotation Yrotation Xrotation
			JOINT Spine1
			{
				OFFSET 0.04085 2.05260 0.00800
				CHANNELS 3 Zrotation Yrotation Xrotation
				JOINT Neck
				{
					OFFSET 0 0 0
					CHANNELS 3 Zrotation Yrotation Xrotation
					JOINT Neck1
					{
						OFFSET -0.03582 1.80995 0.19301
						CHANNELS 3 Zrotation Yrotation Xrotation
						JOINT Head
						{
							OFFSET 0.00952 1.80195 -0.36389
							CHANNELS 3 Zrotation Yrotation Xrotation
							End Site
							{
								OFFSET 0.00392 1.85062 -0.14494
							}
						}
					}
				}
				JOINT LeftShoulder
				{
					OFFSET 0 0 0
					CHANNELS 3 Zrotation Yrotation Xrotation
					JOINT LeftArm
					{
						OFFSET 3.55224 1.39726 -0.13667
						CHANNELS 3 Zrotation Yrotation Xrotation
						JOINT LeftForeArm
						{
							OFFSET 5.14507 -0.00000 -0.00000
							CHANNELS 3 Zrotation Yrotation Xrotation
							JOINT LeftHand
							{
								OFFSET 3.50646 -0.00000 0.00000
								CHANNELS 3 Zrotation Yrotation Xrotation
								JOINT LeftFingerBase
								{
									OFFSET 0 0 0
									CHANNELS 3 Zrotation Yrotation Xrotation
									JOINT LeftHandIndex1
									{
										OFFSET 0.62997 -0.00000 0.00000
										CHANNELS 3 Zrotation Yrotation Xrotation
										End Site
										{
											OFFSET 0.50790 -0.00000 0.00000
										}
									}
								}
								JOINT LThumb
								{
									OFFSET 0 0 0
									CHANNELS 3 Zrotation Yrotation Xrotation
									End Site
									{
										OFFSET 0.51565 -0.00000 0.51565
									}
								}
							}
						}
					}
				}
				JOINT RightShoulder
				{
					OFFSET 0 0 0
					CHANNELS 3 Zrotation Yrotation Xrotation
					JOINT RightArm
					{
						OFFSET -3.06467 1.61290 -0.28813
						CHANNELS 3 Zrotation Yrotation Xrotation
						JOINT RightForeArm
						{
							OFFSET -5.23200 -0.00000 -0.00000
							CHANNELS 3 Zrotation Yrotation Xrotation
							JOINT RightHand
							{
								OFFSET -3.65641 -0.00000 0.00000
								CHANNELS 3 Zrotation Yrotation Xrotation
								JOINT RightFingerBase
								{
									OFFSET 0 0 0
									CHANNELS 3 Zrotation Yrotation Xrotation
									JOINT RightHandIndex1
									{
										OFFSET -0.65681 -0.00000 0.00000
										CHANNELS 3 Zrotation Yrotation Xrotation
										End Site
										{
											OFFSET -0.52953 -0.00000 0.00000
										}
									}
								}
								JOINT RThumb
								{
									OFFSET 0 0 0
									CHANNELS 3 Zrotation Yrotation Xrotation
									End Site
									{
										OFFSET -0.53762 -0.00000 0.53762
									}
								}
							}
						}
					}
				}
			}
		}
	}
}
MOTION
Frames: 15
Frame Time: .0083333
3.3390 22.3911 -8.4546 -182.7220 -18.1540 -184.3280 0.0000 0.0000 0.0000 -6.8660 -18.8711 -36.7026 4.5270 12.8304 38.7369 0.1290 -1.8789 7.7489 0.5310 -4.6697 -12.9688 0.0000 0.0000 0.0000 9.7629 3.8774 -42.7728 -5.8318 -14.2634 44.3031 -0.0409 -8.3132 6.6142 -1.3048 7.2362 -20.4170 -1.1419 -0.2078 20.8439 0.4222 -1.3174 5.5318 1.4691 -0.9878 -5.6038 -3.8337 -0.3140 -10.8608 -3.0237 0.3883 16.0322 -0.3230 -0.4580 6.6886 -0.0000 -0.0000 0.0000 -40.6472 45.1004 9.4488 21.9211 -32.8878 -6.5430 -0.0000 -0.0000 1.9413 25.6293 -6.1783 -2.9557 -7.1250 0.0000 -0.0000 -0.8134 23.1335 0.4285 -0.0000 -0.0000 0.0000 43.1560 -46.3230 10.2236 -22.6598 33.7146 -6.9485 0.0000 -0.0000 -0.3887 -23.1321 0.0222 -0.0095 7.1250 -0.0000 -0.0000 2.7053 -29.9501 0.9944
3.2062 22.0920 -8.9269 -182.3640 -18.5202 -184.9580 0.0000 0.0000 0.0000 -7.2160 -18.7903 -35.3041 4.4440 12.7289 38.3621 0.1611 -1.2749 8.1599 0.5548 -4.7713 -13.2575 0.0000 0.0000 0.0000 9.6939 4.9012 -39.9032 -5.2323 -13.6407 41.8168 -0.1300 -9.1504 8.5586 -1.1914 6.9264 -19.4976 -1.1039 -0.3604 20.0812 0.4299 -1.4778 5.5675 1.4731 -1.0621 -5.1634 -3.8080 -0.2401 -10.9577 -2.9125 0.4705 16.3513 -0.2864 -0.4211 6.8071 -0.0000 0.0000 0.0000 -38.8698 46.7390 11.1863 22.6191 -33.6696 -6.9260 -0.0000 -0.0000 2.6797 25.4984 -6.4633 -3.0731 -7.1250 0.0000 -0.0000 -0.9190 22.8260 0.4906 -0.0000 0.0000 0.0000 42.5151 -47.8228 10.3614 -23.3167 34.4334 -7.3166 0.0000 -0.0000 -0.8176 -23.0853 0.4215 -0.1797 7.1250 -0.0000 -0.0000 2.7308 -29.5165 1.0320
3.0720 21.7823 -9.3983 -182.0130 -18.8289 -185.5650 0.0000 0.0000 0.0000 -7.5969 -18.5923 -33.9912 4.3863 12.6575 38.0994 0.1939 -0.6954 8.6009 0.5535 -4.7660 -13.2424 0.0000 0.0000 0.0000 9.7036 5.9995 -37.1394 -4.7377 -13.0822 39.6770 -0.2404 -9.8407 10.4110 -1.0746 6.5895 -18.5047 -1.0871 -0.4736 19.3005 0.4512 -1.5894 5.5973 1.4888 -1.1121 -4.7198 -3.8166 -0.1846 -11.0418 -2.7828 0.5293 16.6299 -0.2398 -0.3941 6.9106 -0.0000 -0.0000 0.0000 -37.4451 48.1689 12.4766 23.3298 -34.4475 -7.3240 -0.0000 -0.0000 3.2845 25.4311 -6.7184 -3.1840 -7.1250 0.0000 -0.0000 -0.9767 22.5485 0.5276 -0.0000 -0.0000 0.0000 42.0777 -49.2003 10.4212 -23.9842 35.1476 -7.6975 0.0000 -0.0000 -1.2258 -23.0291 0.8271 -0.3516 7.1250 -0.0000 -0.0000 2.7644 -29.0763 1.0737
2.9363 21.4628 -9.8673 -181.6710 -19.0864 -186.1390 0.0000 0.0000 0.0000 -8.0139 -18.2621 -32.7842 4.3553 12.6188 37.9576 0.2271 -0.2231 9.0836 0.5258 -4.6471 -12.9047 0.0000 0.0000 0.0000 9.8097 7.1097 -34.5196 -4.3424 -12.6026 37.8984 -0.3687 -10.3609 12.1610 -0.9575 6.2308 -17.4556 -1.0875 -0.5502 18.5215 0.4885 -1.6537 5.6072 1.5190 -1.1377 -4.2976 -3.8589 -0.1458 -11.0931 -2.6391 0.5660 16.8711 -0.1846 -0.3769 6.9965 0.0000 -0.0000 0.0000 -36.4224 49.3982 13.3054 24.0511 -35.2182 -7.7360 -0.0000 -0.0000 3.6193 25.4135 -6.9424 -3.2868 -7.1250 0.0000 -0.0000 -0.9972 22.3024 0.5442 0.0000 -0.0000 0.0000 41.8912 -50.4535 10.3446 -24.6428 35.8367 -8.0799 0.0000 -0.0000 -1.5961 -23.0035 1.2207 -0.5182 7.1250 -0.0000 -0.0000 2.7752 -28.6493 1.1061
2.7990 21.1334 -10.3325 -181.3390 -19.2997 -186.6730 0.0000 0.0000 0.0000 -8.4633 -17.7967 -31.7035 4.3531 12.6160 37.9474 0.2586 0.0503 9.5879 0.4777 -4.4326 -12.2971 0.0000 0.0000 0.0000 10.0195 8.1696 -32.0827 -4.0393 -12.2125 36.4880 -0.5012 -10.7887 13.7336 -0.8181 5.7715 -16.1228 -1.0923 -0.5901 17.7644 0.5436 -1.6686 5.5966 1.5600 -1.1378 -3.9082 -3.9428 -0.1308 -11.1474 -2.4764 0.5745 17.0902 -0.1187 -0.3730 7.0760 -0.0000 -0.0000 0.0000 -35.8493 50.4124 13.6643 24.7835 -35.9819 -8.1623 -0.0000 -0.0000 3.6172 25.4429 -7.1226 -3.3760 -7.1250 0.0000 -0.0000 -0.9821 22.1017 0.5405 -0.0000 -0.0000 0.0000 42.0492 -51.5615 10.0132 -25.2683 36.4769 -8.4489 0.0000 -0.0000 -1.9280 -23.0302 1.5760 -0.6699 7.1250 -0.0000 -0.0000 2.7473 -28.2635 1.1200
2.6598 20.7945 -10.7924 -181.0250 -19.4812 -187.1630 0.0000 0.0000 0.0000 -8.9524 -17.1998 -30.7567 4.3819 12.6519 38.0790 0.2861 0.0566 10.0834 0.4239 -4.1786 -11.5796 0.0000 0.0000 0.0000 10.3304 9.1004 -29.8585 -3.8212 -11.9186 35.4446 -0.6399 -11.1072 15.1932 -0.6860 5.2955 -14.7532 -1.0948 -0.5975 17.0452 0.6107 -1.6385 5.5602 1.6048 -1.1142 -3.5661 -4.0635 -0.1386 -11.2200 -2.2885 0.5555 17.3105 -0.0409 -0.3821 7.1594 0.0000 -0.0000 0.0000 -35.7332 51.2174 13.5848 25.5272 -36.7380 -8.6033 -0.0000 -0.0000 3.2748 25.4703 -7.2406 -3.4357 -7.1250 0.0000 -0.0000 -0.9662 21.9697 0.5347 0.0000 -0.0000 0.0000 42.6275 -52.5074 9.3411 -25.8293 37.0397 -8.7846 0.0000 -0.0000 -2.2383 -23.1103 1.8824 -0.8031 7.1250 -0.0000 -0.0000 2.6800 -27.9299 1.1137
2.5190 20.4458 -11.2461 -180.7300 -19.6405 -187.6060 0.0000 0.0000 0.0000 -9.4780 -16.4794 -29.9537 4.4440 12.7289 38.3619 0.3055 -0.2463 10.5328 0.3793 -3.9553 -10.9508 0.0000 0.0000 0.0000 10.7308 9.8457 -27.8744 -3.6807 -11.7229 34.7587 -0.7829 -11.3702 16.5661 -0.5597 4.7921 -13.3165 -1.0876 -0.5783 16.3805 0.6831 -1.5701 5.4906 1.6453 -1.0697 -3.2879 -4.2016 -0.1677 -11.3108 -2.0805 0.5082 17.5378 0.0438 -0.4039 7.2488 0.0000 -0.0000 0.0000 -36.0594 51.8340 13.1239 26.2800 -37.4839 -9.0575 -0.0000 -0.0000 2.6713 25.5072 -7.3372 -3.4869 -7.1250 0.0000 -0.0000 -0.9429 21.8607 0.5241 0.0000 -0.0000 0.0000 43.6710 -53.2751 8.3044 -26.3082 37.5115 -9.0747 0.0000 -0.0000 -2.5873 -23.2376 2.1282 -0.9135 7.1250 -0.0000 -0.0000 2.5782 -27.6611 1.0877
2.3769 20.0872 -11.6929 -180.4520 -19.7772 -188.0030 0.0000 0.0000 0.0000 -10.0285 -15.6507 -29.2962 4.5404 12.8467 38.7972 0.3132 -0.8524 10.9159 0.3511 -3.8069 -10.5339 0.0000 0.0000 0.0000 11.1998 10.3944 -26.1616 -3.6185 -11.6346 34.4514 -0.9344 -11.5571 17.9021 -0.4540 4.3223 -11.9854 -1.0685 -0.5349 15.7849 0.7563 -1.4669 5.3854 1.6773 -1.0059 -3.0844 -4.3485 -0.2163 -11.4199 -1.8457 0.4327 17.7703 0.1361 -0.4369 7.3436 0.0000 0.0000 0.0000 -36.7979 52.2762 12.3513 27.0248 -38.2028 -9.5144 -0.0000 -0.0000 1.9243 25.5611 -7.4445 -3.5461 -7.1250 0.0000 -0.0000 -0.9078 21.7385 0.5071 0.0000 0.0000 0.0000 45.1943 -53.8383 6.9073 -26.6845 37.8767 -9.3048 0.0000 -0.0000 -3.0078 -23.3875 2.3198 -1.0029 7.1250 -0.0000 -0.0000 2.4605 -27.4502 1.0502
2.2343 19.7186 -12.1322 -180.1930 -19.9084 -188.3500 0.0000 0.0000 0.0000 -10.6017 -14.7430 -28.7841 4.6710 13.0034 39.3814 0.3065 -1.7360 11.2384 0.3441 -3.7695 -10.4290 0.0000 0.0000 0.0000 11.6994 10.7587 -24.7365 -3.6398 -11.6651 34.5572 -1.0038 -11.4339 18.4419 -0.4440 4.2753 -11.8524 -1.0455 -0.4756 15.2616 0.8247 -1.3420 5.2466 1.7022 -0.9294 -2.9546 -4.4875 -0.2812 -11.5594 -1.5869 0.3324 17.9996 0.2328 -0.4777 7.4436 -0.0000 0.0000 0.0000 -37.9220 52.5612 11.3284 27.7550 -38.8897 -9.9695 -0.0000 -0.0000 1.1583 25.6205 -7.5645 -3.6123 -7.1250 0.0000 -0.0000 -0.8693 21.6018 0.4882 -0.0000 0.0000 0.0000 47.1735 -54.1686 5.2095 -26.9434 38.1252 -9.4642 0.0000 -0.0000 -3.5384 -23.5517 2.4936 -1.0864 7.1250 -0.0000 -0.0000 2.3327 -27.2579 1.0061
2.0927 19.3405 -12.5628 -179.9480 -20.0275 -188.6430 0.0000 0.0000 0.0000 -11.1704 -13.8099 -28.4180 4.8369 13.1977 40.1131 0.2762 -2.7847 11.3520 0.4062 -4.0917 -11.3349 0.0000 0.0000 0.0000 12.2365 10.8682 -23.5877 -3.7589 -11.8325 35.1419 -0.9488 -10.7001 17.8384 -0.6167 5.0257 -13.9819 -1.0207 -0.3999 14.8127 0.8841 -1.1943 5.0702 1.7167 -0.8397 -2.9043 -4.5890 -0.3588 -11.7128 -1.3183 0.2080 18.2028 0.3246 -0.5241 7.5383 -0.0000 -0.0000 0.0000 -39.3628 52.7016 10.1607 28.4572 -39.5337 -10.4134 -0.0000 -0.0000 0.4592 25.6879 -7.7220 -3.6980 -7.1250 0.0000 -0.0000 -0.8267 21.4231 0.4677 -0.0000 -0.0000 0.0000 49.5525 -54.2557 3.3034 -27.0761 38.2516 -9.5462 0.0000 -0.0000 -4.1549 -23.7078 2.6713 -1.1725 7.1250 -0.0000 -0.0000 2.2118 -27.0610 0.9641
1.9531 18.9549 -12.9830 -179.7130 -20.1499 -188.8810 0.0000 0.0000 0.0000 -11.7252 -12.9037 -28.1645 5.0462 13.4356 41.0219 0.2141 -3.8832 11.0529 0.4027 -4.0740 -11.2849 0.0000 0.0000 0.0000 12.7612 10.8270 -22.7114 -3.9870 -12.1431 36.2401 -0.7791 -9.4338 16.0982 -0.8743 5.9613 -16.6723 -1.0030 -0.3216 14.4438 0.9434 -1.0448 4.8646 1.7383 -0.7481 -2.9268 -4.6780 -0.4428 -11.8842 -1.0464 0.0765 18.3369 0.4151 -0.5685 7.6143 0.0000 0.0000 0.0000 -41.1485 52.7098 8.8658 29.1173 -40.1247 -10.8362 -0.0000 0.0000 -0.1447 25.7626 -7.9219 -3.8054 -7.1250 0.0000 -0.0000 -0.7809 21.1968 0.4457 0.0000 0.0000 0.0000 52.2136 -54.0603 1.3138 -27.0763 38.2519 -9.5463 0.0000 -0.0000 -4.7846 -23.8706 2.8748 -1.2714 7.1250 -0.0000 -0.0000 2.0863 -26.8353 0.9204
1.8172 18.5666 -13.3900 -179.4800 -20.2804 -189.0620 0.0000 0.0000 0.0000 -12.2653 -12.0322 -28.0576 5.3141 13.7290 42.1627 0.1105 -5.1176 10.1484 0.3837 -3.9779 -11.0144 0.0000 0.0000 0.0000 13.2733 10.6227 -22.0879 -4.3339 -12.5920 37.8597 -0.5144 -7.5339 13.0366 -1.2321 7.0393 -19.8318 -0.9894 -0.2453 14.1654 1.0065 -0.8988 4.6260 1.7699 -0.6573 -3.0318 -4.7408 -0.5272 -12.0174 -0.7945 -0.0544 18.3351 0.4955 -0.6062 7.6392 -0.0000 -0.0000 0.0000 -43.2549 52.5716 7.4815 29.7060 -40.6400 -11.2176 -0.0000 0.0000 -0.6144 25.8440 -8.1591 -3.9325 -7.1250 0.0000 -0.0000 -0.7324 20.9284 0.4225 -0.0000 -0.0000 0.0000 55.0769 -53.5857 -0.6805 -26.9609 38.1418 -9.4749 0.0000 -0.0000 -5.3562 -24.0316 3.1028 -1.3826 7.1250 -0.0000 -0.0000 1.9630 -26.5821 0.8776
1.6853 18.1795 -13.7804 -179.2370 -20.4190 -189.1960 0.0000 0.0000 0.0000 -12.7616 -11.2907 -28.0759 5.6707 14.1015 43.6455 -0.0307 -6.4198 8.3143 0.3233 -3.6548 -10.1074 0.0000 0.0000 0.0000 13.7747 10.2413 -21.6871 -4.7974 -13.1520 39.9401 -0.2309 -5.0971 8.7288 -1.6681 8.1376 -23.1329 -0.9678 -0.1769 13.9983 1.0776 -0.7623 4.3481 1.8097 -0.5700 -3.2371 -4.7541 -0.5990 -12.0370 -0.5985 -0.1697 18.1423 0.5517 -0.6313 7.5811 0.0000 0.0000 0.0000 -45.6636 52.2837 6.0433 30.1991 -41.0635 -11.5402 -0.0000 0.0000 -0.9453 25.9536 -8.4427 -4.0875 -7.1250 0.0000 -0.0000 -0.6663 20.6063 0.3892 0.0000 0.0000 0.0000 58.0595 -52.8320 -2.6147 -26.7353 37.9256 -9.3360 0.0000 -0.0000 -5.7960 -24.2051 3.3485 -1.5040 7.1250 -0.0000 -0.0000 1.8313 -26.3086 0.8303
1.5569 17.8000 -14.1510 -178.9540 -20.5509 -189.3080 0.0000 0.0000 0.0000 -13.1637 -10.7662 -28.1900 6.1259 14.5493 45.4850 -0.1653 -7.6156 5.4692 0.2190 -3.0127 -8.3142 0.0000 0.0000 0.0000 14.2935 9.7055 -21.4239 -5.3495 -13.7669 42.3117 -0.0326 -2.5328 3.4265 -2.1243 9.1203 -26.1723 -0.9013 -0.1212 13.9799 1.1725 -0.6383 4.0389 1.8539 -0.4889 -3.5555 -4.7019 -0.6452 -11.9442 -0.5055 -0.2460 17.7634 0.5679 -0.6371 7.4413 -0.0000 0.0000 0.0000 -48.4201 51.7984 4.5056 30.5613 -41.3697 -11.7789 -0.0000 0.0000 -1.1401 26.0659 -8.7309 -4.2465 -7.1250 0.0000 -0.0000 -0.5995 20.2783 0.3546 -0.0000 0.0000 0.0000 61.0843 -51.7729 -4.4429 -26.4306 37.6307 -9.1493 0.0000 -0.0000 -6.1279 -24.3813 3.5463 -1.6059 7.1250 -0.0000 -0.0000 1.6981 -26.0867 0.7788
1.4318 17.4363 -14.4991 -178.6040 -20.6354 -189.3180 0.0000 0.0000 0.0000 -13.3778 -10.5663 -28.5891 6.7383 15.1075 47.8776 -0.2322 -8.6090 1.7498 0.1233 -2.2640 -6.2357 0.0000 0.0000 0.0000 14.8209 9.1811 -21.4118 -6.0039 -14.4321 44.9975 -0.0136 -0.5100 -2.4540 -2.4670 9.7777 -28.2597 -0.7682 -0.0723 14.0503 1.3119 -0.5118 3.6900 1.9079 -0.4064 -3.9643 -4.5849 -0.6628 -11.7591 -0.5541 -0.2713 17.1954 0.5328 -0.6221 7.2231 0.0000 0.0000 0.0000 -51.5839 51.0009 2.7833 30.7193 -41.5020 -11.8834 -0.0000 0.0000 -1.1477 26.2281 -9.0332 -4.4232 -7.1250 0.0000 -0.0000 -0.4988 19.9300 0.2989 0.0000 0.0000 0.0000 64.0972 -50.3392 -6.1698 -26.0522 37.2602 -8.9192 0.0000 -0.0000 -6.4175 -24.5873 3.6744 -1.6797 7.1250 -0.0000 -0.0000 1.5428 -25.9397 0.7128
